<svg xmlns="http://www.w3.org/2000/svg" width="1200" height="420" viewBox="0 0 1200 420" role="img" aria-labelledby="title desc">
  <title id="title">Alejandro Padilla, Remote AI and Automation Engineer</title>
  <desc id="desc">AI automation, backend systems, and full-stack delivery from Ecuador.</desc>
  <defs>
    <linearGradient id="accent" x1="0" y1="0" x2="1" y2="0">
      <stop offset="0" stop-color="#8FE3C2"/>
      <stop offset="1" stop-color="#A78BFA"/>
    </linearGradient>
    <radialGradient id="glow" cx="78%" cy="18%" r="70%">
      <stop offset="0" stop-color="#A78BFA" stop-opacity=".2"/>
      <stop offset="1" stop-color="#0B1020" stop-opacity="0"/>
    </radialGradient>
  </defs>
  <rect width="1200" height="420" rx="28" fill="#0B1020"/>
  <rect width="1200" height="420" rx="28" fill="url(#glow)"/>
  <path d="M0 356 C260 302 408 440 674 363 C890 300 1040 327 1200 263 V420 H0Z" fill="#151B2E"/>
  <circle cx="1050" cy="74" r="5" fill="#8FE3C2"/>
  <circle cx="1090" cy="110" r="3" fill="#A78BFA"/>
  <circle cx="1002" cy="126" r="2" fill="#F3F7FA" opacity=".6"/>
  <rect x="72" y="58" width="276" height="34" rx="17" fill="#151B2E" stroke="#8FE3C2" stroke-opacity=".5"/>
  <circle cx="92" cy="75" r="5" fill="#8FE3C2"/>
  <text x="108" y="81" fill="#F3F7FA" font-family="Inter,Segoe UI,Arial,sans-serif" font-size="14" font-weight="700" letter-spacing="1.5">AVAILABLE FOR REMOTE ROLES</text>
  <text x="72" y="160" fill="#F3F7FA" font-family="Inter,Segoe UI,Arial,sans-serif" font-size="56" font-weight="760">Alejandro Padilla</text>
  <rect x="72" y="186" width="670" height="7" rx="3.5" fill="url(#accent)"/>
  <text x="72" y="254" fill="url(#accent)" font-family="Inter,Segoe UI,Arial,sans-serif" font-size="39" font-weight="720">AI &amp; Automation Engineer</text>
  <text x="72" y="301" fill="#A8B3C7" font-family="Inter,Segoe UI,Arial,sans-serif" font-size="21">Practical AI systems  /  Backend engineering  /  Full-stack delivery</text>
  <text x="72" y="366" fill="#F3F7FA" font-family="Inter,Segoe UI,Arial,sans-serif" font-size="17" font-weight="600">ECUADOR  ·  REMOTE WORLDWIDE</text>
</svg>
